<svg width="20" height="21" viewBox="0 0 20 21" fill="none" xmlns="http://www.w3.org/2000/svg">
<path fill-rule="evenodd" clip-rule="evenodd" d="M13.8676 12.0397C13.6548 11.9333 12.6112 11.4204 12.4169 11.349C12.2226 11.2783 12.0812 11.2433 11.939 11.4561C11.7976 11.6676 11.3912 12.1461 11.2676 12.2876C11.1433 12.4297 11.0198 12.4469 10.8076 12.3411C10.5955 12.234 9.91119 12.0104 9.10047 11.2876C8.46976 10.7247 8.04333 10.0297 7.91976 9.81686C7.79619 9.60472 7.90619 9.48972 8.01262 9.384C8.10833 9.289 8.22476 9.13615 8.33119 9.01258C8.43762 8.88829 8.47262 8.79972 8.54333 8.65758C8.61476 8.51615 8.57905 8.39258 8.52547 8.28615C8.47262 8.17972 8.04833 7.13472 7.87119 6.70972C7.69905 6.29615 7.52405 6.35258 7.39405 6.34544C7.26976 6.33972 7.12833 6.3383 6.98691 6.3383C6.84548 6.3383 6.61548 6.39115 6.42119 6.60401C6.22619 6.81615 5.67834 7.32972 5.67834 8.37472C5.67834 9.419 6.43834 10.4283 6.54476 10.5704C6.65119 10.7119 8.04119 12.8561 10.1705 13.7754C10.6776 13.994 11.0726 14.1247 11.3805 14.2219C11.889 14.384 12.3519 14.3611 12.7176 14.3061C13.1248 14.2454 13.9733 13.7926 14.1505 13.2969C14.3269 12.8011 14.3269 12.3761 14.274 12.2876C14.2212 12.199 14.0798 12.1461 13.8669 12.0397H13.8676ZM9.99476 17.3276H9.9919C8.72721 17.3278 7.48574 16.9878 6.39762 16.3433L6.14048 16.1904L3.46763 16.8918L4.1812 14.2861L4.01334 14.019C3.3063 12.8935 2.93212 11.591 2.93406 10.2619C2.93548 6.36901 6.10262 3.20187 9.99761 3.20187C11.8833 3.20187 13.6562 3.93759 14.989 5.27187C15.6464 5.92657 16.1675 6.70513 16.5221 7.56251C16.8767 8.41988 17.0577 9.33906 17.0547 10.2669C17.0533 14.1597 13.8862 17.3276 9.99476 17.3276ZM16.0033 4.2583C15.2163 3.4661 14.2799 2.83797 13.2484 2.4103C12.2169 1.98263 11.1107 1.76393 9.99404 1.76687C5.31262 1.76687 1.5012 5.57758 1.49977 10.2611C1.49906 11.7583 1.88977 13.2197 2.63334 14.5076L1.42834 18.9097L5.93119 17.7283C7.17682 18.4069 8.57268 18.7625 9.99119 18.7626H9.99476C14.6762 18.7626 18.4876 14.9519 18.489 10.2676C18.4925 9.15134 18.2746 8.04551 17.8479 7.01403C17.4212 5.98256 16.7943 5.04592 16.0033 4.2583Z" fill="white"/>
</svg>
